<?xml version="1.0" standalone="no"?>
<!DOCTYPE svg PUBLIC "-//W3C//DTD SVG 20010904//EN"
 "http://www.w3.org/TR/2001/REC-SVG-20010904/DTD/svg10.dtd">
<svg version="1.0" xmlns="http://www.w3.org/2000/svg"
 width="500.000000pt" height="500.000000pt" viewBox="0 0 500.000000 500.000000"
 preserveAspectRatio="xMidYMid meet">

<g transform="translate(0.000000,500.000000) scale(0.100000,-0.100000)"
fill="#000000" stroke="none">
<path d="M2811 3673 c-29 -14 -111 -84 -210 -179 -14 -13 -22 -26 -18 -30 4
-4 45 30 92 74 88 86 138 122 167 122 38 0 31 -147 -13 -264 -23 -64 -69 -114
-109 -122 -34 -7 -33 -6 -21 -54 25 -96 18 -224 -16 -281 -21 -35 -64 -59
-105 -59 -69 0 -125 29 -208 107 -88 82 -109 82 -31 0 l49 -52 -19 -24 -20
-24 -36 19 c-25 14 -37 16 -40 7 -2 -6 -17 -30 -33 -51 -30 -41 -29 -52 2 -52
25 0 23 -11 -12 -80 -33 -66 -34 -70 -20 -70 6 0 10 5 10 11 0 6 15 35 32 65
23 38 39 54 54 54 20 0 153 -42 174 -55 6 -4 -1 -20 -16 -41 -21 -27 -23 -34
-10 -34 9 0 16 3 16 8 1 4 10 18 20 31 19 22 21 23 46 6 14 -9 27 -15 28 -13
1 2 14 23 30 46 26 41 26 45 11 62 -16 18 -16 20 2 44 10 14 21 26 25 26 4 0
22 13 41 30 56 48 78 161 54 275 -16 74 -15 85 9 85 26 0 64 32 89 74 49 86
80 286 51 331 -19 29 -21 30 -65 8z m-353 -779 c27 -14 68 -28 91 -31 43 -6
50 -13 28 -32 -10 -8 -36 -5 -99 13 -109 30 -114 33 -92 57 9 10 18 19 20 19
1 0 25 -12 52 -26z m-141 -26 c-10 -5 -17 -15 -17 -21 0 -20 -20 -35 -40 -30
-18 5 -17 8 7 44 22 34 28 37 46 28 18 -10 19 -12 4 -21z m110 -23 c19 -8 43
-15 52 -15 9 -1 30 -7 46 -14 l30 -14 -27 -10 c-19 -8 -26 -16 -22 -27 8 -20
2 -19 -90 10 -43 14 -85 25 -92 25 -18 0 -18 6 4 35 20 28 48 31 99 10z m169
-60 c2 -5 -7 -23 -20 -39 -18 -21 -28 -26 -40 -19 -14 8 -13 12 7 41 21 30 47
39 53 17z"/>
<path d="M2400 2817 c0 -21 12 -28 27 -16 19 16 16 29 -7 29 -11 0 -20 -6 -20
-13z"/>
<path d="M2364 3484 c-54 -19 -111 -75 -135 -130 l-18 -44 -158 0 c-130 0
-164 -3 -193 -18 -30 -14 -35 -22 -35 -52 0 -29 6 -38 40 -61 22 -15 96 -50
165 -79 69 -28 137 -56 151 -62 33 -14 71 -4 87 23 18 29 8 35 -17 10 -30 -30
-50 -27 -170 27 -218 97 -257 124 -235 159 17 28 61 35 228 36 l158 2 20 52
c36 97 114 139 241 130 46 -3 65 -1 58 6 -17 17 -142 18 -187 1z"/>
<path d="M2572 3224 c-12 -8 -22 -20 -22 -27 0 -8 3 -8 12 1 16 16 29 15 22
-2 -3 -8 -1 -24 6 -35 12 -24 58 -29 78 -9 18 18 15 75 -4 82 -28 11 -69 6
-92 -10z"/>
<path d="M2340 3130 c-23 -23 -28 -62 -6 -54 8 3 16 -3 19 -15 8 -32 74 -30
82 2 8 29 2 70 -10 79 -19 14 -65 8 -85 -12z"/>
<path d="M2542 3024 c-49 -34 -7 -82 43 -50 33 22 35 66 2 66 -12 0 -33 -7
-45 -16z"/>
<path d="M2631 2963 c0 -7 -11 -21 -23 -33 -24 -22 -12 -28 16 -7 11 8 16 21
13 33 -2 10 -5 14 -6 7z"/>
<path d="M2303 2653 c9 -2 23 -2 30 0 6 3 -1 5 -18 5 -16 0 -22 -2 -12 -5z"/>
<path d="M1378 2618 c-18 -14 -108 -231 -108 -259 0 -17 26 -33 40 -24 4 2 13
18 20 35 12 29 15 30 74 30 59 0 62 -2 76 -33 16 -35 37 -41 52 -17 8 11 -3
47 -38 130 -62 150 -77 168 -116 138z m46 -111 c9 -23 16 -46 16 -50 0 -4 -18
-7 -39 -7 l-39 0 16 50 c9 28 19 50 23 50 3 0 14 -19 23 -43z"/>
<path d="M1743 2623 c-8 -3 -13 -24 -13 -54 0 -50 0 -50 -22 -35 -33 23 -72
19 -107 -10 -27 -23 -31 -32 -31 -79 0 -87 56 -133 122 -101 27 14 32 14 45 0
32 -31 38 -11 41 133 3 143 -1 158 -35 146z m-39 -129 c19 -18 21 -85 4 -102
-20 -20 -56 -14 -74 13 -37 57 24 136 70 89z"/>
<path d="M2587 2613 c-12 -12 -7 -31 10 -37 19 -8 48 17 39 33 -8 12 -39 15
-49 4z"/>
<path d="M1885 2541 c-84 -35 -83 -162 3 -198 96 -40 184 56 140 152 -21 46
-89 68 -143 46z m77 -48 c21 -19 25 -82 6 -101 -7 -7 -24 -12 -38 -12 -35 0
-50 17 -50 59 0 60 44 89 82 54z"/>
<path d="M2084 2537 c-2 -7 -3 -71 -2 -143 3 -125 4 -129 26 -132 20 -3 22 0
22 48 0 28 3 50 8 48 4 -2 19 -10 34 -17 51 -26 115 19 119 84 4 57 -10 91
-46 111 -30 16 -39 17 -71 5 -26 -9 -39 -10 -47 -2 -15 15 -37 14 -43 -2z
m136 -47 c24 -24 26 -72 4 -94 -18 -19 -55 -21 -72 -4 -17 17 -15 78 5 100 21
23 38 23 63 -2z"/>
<path d="M2385 2538 c-54 -29 -73 -111 -39 -163 22 -33 84 -50 130 -35 38 13
65 45 57 66 -8 20 -36 17 -51 -6 -26 -42 -102 -12 -102 41 0 22 38 69 55 69 7
0 27 -12 44 -26 32 -27 51 -25 51 6 0 46 -93 77 -145 48z"/>
<path d="M2587 2543 c-4 -3 -7 -48 -7 -98 0 -70 4 -96 15 -105 12 -10 18 -10
30 0 11 9 15 34 15 95 0 46 -3 90 -6 99 -6 16 -35 22 -47 9z"/>
<path d="M2728 2533 c-74 -47 -61 -159 22 -193 45 -19 105 1 131 43 26 42 20
101 -14 135 -32 32 -101 40 -139 15z m94 -40 c21 -19 25 -82 6 -101 -7 -7 -24
-12 -38 -12 -36 0 -50 17 -50 61 0 61 43 88 82 52z"/>
<path d="M2947 2543 c-4 -3 -7 -50 -7 -104 0 -72 3 -98 13 -102 25 -10 34 8
40 77 4 51 10 73 23 83 23 17 29 16 48 -3 11 -11 16 -35 16 -84 0 -47 4 -69
13 -73 30 -11 38 9 38 94 0 74 -2 86 -21 101 -27 22 -68 23 -97 3 -19 -13 -22
-13 -27 0 -6 15 -28 20 -39 8z"/>
<path d="M3228 2534 c-36 -19 -48 -43 -48 -97 0 -56 31 -92 88 -102 63 -10
135 36 104 67 -7 7 -19 4 -38 -11 -43 -34 -94 -23 -94 21 0 15 9 18 64 18 76
0 91 12 75 59 -19 55 -93 77 -151 45z m90 -36 c25 -25 13 -38 -33 -38 -30 0
-45 4 -45 13 0 19 21 37 45 37 12 0 26 -5 33 -12z"/>
<path d="M3443 2526 c-24 -21 -26 -27 -18 -52 8 -22 22 -31 68 -47 43 -14 57
-23 55 -36 -5 -24 -51 -26 -73 -1 -23 25 -55 27 -55 2 0 -64 149 -80 181 -20
20 37 3 65 -48 83 -64 22 -76 29 -75 40 2 17 55 18 64 1 10 -19 44 -21 54 -4
4 6 -4 21 -20 35 -37 32 -95 31 -133 -1z"/>
<path d="M1391 2159 c-43 -17 -81 -50 -100 -87 -59 -117 -19 -267 83 -313 44
-20 160 -26 186 -9 10 6 27 2 57 -15 48 -29 81 -32 90 -8 6 15 -16 40 -54 62
-12 6 -11 14 7 44 13 21 24 62 27 96 10 112 -44 205 -134 230 -46 13 -130 13
-162 0z m164 -92 c24 -24 35 -46 40 -81 8 -48 -6 -119 -25 -131 -5 -3 -27 3
-49 15 -66 33 -103 -2 -38 -37 l32 -18 -29 -3 c-46 -6 -73 6 -102 44 -22 28
-27 46 -28 92 -1 96 45 152 128 152 30 0 45 -7 71 -33z"/>
<path d="M2136 2154 c-32 -31 -6 -71 39 -60 19 5 25 13 25 35 0 40 -35 54 -64
25z"/>
<path d="M2294 2157 c-2 -7 -3 -102 -2 -212 l3 -200 23 -3 c49 -7 52 6 52 212
0 136 -4 196 -12 204 -16 16 -57 15 -64 -1z"/>
<path d="M2466 2047 c-14 -11 -16 -31 -14 -157 3 -143 3 -145 26 -148 42 -6
52 13 52 107 0 101 13 135 54 139 16 2 33 -1 39 -7 6 -6 14 -62 17 -124 l5
-112 29 -3 c16 -2 32 2 37 10 5 7 9 54 9 103 0 104 14 135 59 135 37 0 41 -12
41 -121 0 -100 10 -129 43 -129 40 0 47 18 47 126 0 116 -12 161 -47 175 -40
15 -98 11 -124 -10 -24 -19 -25 -19 -48 0 -30 24 -107 26 -141 2 -17 -12 -25
-13 -28 -5 -7 22 -38 32 -56 19z"/>
<path d="M3081 2049 c-53 -16 -78 -37 -95 -80 -33 -81 -11 -163 53 -206 60
-41 193 -25 220 25 29 55 -2 72 -56 32 -47 -36 -91 -39 -121 -7 -12 13 -22 33
-22 45 0 21 4 22 99 22 75 0 101 4 111 15 15 18 7 71 -16 103 -31 45 -112 69
-173 51z m91 -66 c9 -10 19 -28 22 -40 7 -22 5 -23 -63 -23 -64 0 -71 2 -71
20 0 50 80 80 112 43z"/>
<path d="M3410 2049 c-41 -9 -80 -50 -80 -85 0 -38 39 -69 117 -92 74 -23 92
-41 67 -67 -25 -25 -72 -19 -106 15 -46 46 -87 37 -74 -16 20 -77 216 -89 256
-15 15 29 12 87 -6 102 -8 7 -50 24 -92 38 -62 21 -77 30 -77 46 0 32 63 33
100 0 34 -29 48 -31 65 -10 41 50 -70 106 -170 84z"/>
<path d="M1762 2028 c-7 -20 -8 -100 -3 -206 2 -50 42 -82 101 -82 32 0 55 6
73 20 31 25 33 25 40 -1 4 -16 12 -20 34 -17 l28 3 0 150 c0 149 0 150 -23
153 -43 6 -52 -13 -52 -112 0 -84 -2 -95 -23 -114 -29 -28 -73 -29 -87 -3 -5
11 -10 59 -10 106 0 47 -5 95 -10 106 -15 27 -58 25 -68 -3z"/>
<path d="M2131 2031 c-6 -11 -11 -73 -11 -138 0 -131 9 -157 51 -151 l24 3 0
150 0 150 -27 3 c-18 2 -30 -3 -37 -17z"/>
<path d="M2125 1604 c-239 -13 -658 -55 -743 -74 -23 -6 -58 -10 -76 -10 -19
0 -56 -5 -83 -10 -26 -6 -129 -26 -228 -46 -98 -19 -184 -38 -189 -41 -5 -4
-26 -10 -45 -14 -83 -16 -245 -62 -282 -78 l-39 -18 60 -74 61 -74 -63 -18
c-263 -74 -448 -135 -448 -147 0 -4 17 -15 38 -24 33 -15 46 -16 81 -6 50 13
66 7 22 -8 -17 -6 -31 -13 -31 -15 0 -2 81 -43 179 -92 99 -48 178 -93 176
-99 -2 -6 -36 -105 -76 -219 -39 -114 -70 -210 -67 -212 4 -4 190 48 369 104
53 16 157 46 230 66 224 61 226 61 224 93 -1 23 -6 27 -31 25 l-29 -1 33 14
c17 8 32 21 32 29 0 18 -2 18 -43 2 -39 -16 -89 -16 -94 -1 -4 12 68 30 207
54 36 7 90 18 120 25 30 8 98 19 150 25 52 7 120 16 150 21 178 29 422 42 775
42 359 1 499 -6 745 -38 58 -7 150 -19 205 -25 55 -7 116 -17 135 -22 19 -5
49 -11 65 -14 17 -2 54 -9 83 -16 56 -12 55 -10 56 -98 1 -33 4 -36 46 -47
170 -45 509 -142 724 -208 65 -20 120 -34 123 -32 2 3 -30 101 -72 218 -41
118 -75 217 -75 220 0 3 81 45 180 94 99 49 176 93 172 97 -7 7 -183 59 -420
123 -56 15 -101 30 -98 32 3 3 51 -7 108 -22 57 -15 114 -29 126 -31 13 -3 63
-18 110 -33 172 -57 209 -65 242 -51 67 28 59 36 -87 84 -77 25 -193 59 -258
76 -151 39 -185 50 -185 58 0 4 20 32 45 62 25 30 45 58 45 61 0 12 -71 36
-185 63 -60 15 -123 31 -140 37 -78 27 -326 76 -605 119 -97 15 -378 48 -515
60 -120 11 -778 21 -910 14z m685 -39 c483 -14 1076 -109 1545 -247 81 -23 87
-26 80 -38 -3 -5 -54 5 -113 21 -285 79 -673 159 -917 189 -49 6 -124 15 -165
20 -315 39 -971 47 -1310 16 -465 -43 -917 -123 -1250 -221 -90 -26 -120 -30
-120 -17 0 10 93 39 265 83 461 118 957 185 1470 198 149 4 284 6 300 4 17 -1
113 -5 215 -8z m-290 -281 c0 -15 4 -23 11 -19 5 4 21 4 35 1 22 -6 24 -11 24
-61 0 -42 -3 -55 -15 -55 -11 0 -15 12 -15 45 0 38 -3 45 -20 45 -17 0 -20 -7
-20 -45 0 -33 -4 -45 -15 -45 -12 0 -15 16 -15 80 0 64 3 80 15 80 9 0 15 -10
15 -26z m-326 0 c3 -9 6 -45 6 -81 0 -47 -3 -64 -12 -61 -12 4 -29 144 -19
154 9 8 19 4 25 -12z m801 6 c3 -6 3 -41 -1 -79 l-6 -69 -41 0 c-51 -1 -67 11
-67 52 0 49 20 70 58 63 29 -6 32 -4 32 18 0 25 14 33 25 15z m-925 -15 c7 -8
10 -25 6 -39 -3 -14 -2 -28 4 -31 20 -12 11 -55 -14 -66 -52 -24 -110 25 -77
65 8 10 9 16 1 21 -14 8 -13 38 2 53 17 17 63 15 78 -3z m-130 -10 c7 -8 15
-35 17 -59 4 -35 1 -48 -16 -65 -26 -26 -45 -27 -71 -1 -22 22 -27 88 -10 121
13 23 62 26 80 4z m-130 -10 c7 -8 15 -35 18 -60 3 -35 0 -50 -13 -65 -24 -26
-60 -25 -79 2 -22 32 -21 114 2 127 25 15 58 13 72 -4z m521 -50 l3 -50 -49 0
-50 0 -3 53 c-2 41 0 52 12 52 10 0 16 -13 18 -42 4 -55 32 -61 36 -8 6 80 29
77 33 -5z m110 55 c20 -11 27 -40 9 -40 -5 0 -10 5 -10 10 0 6 -11 10 -25 10
-21 0 -25 -5 -25 -30 0 -37 23 -49 49 -26 24 21 38 4 15 -18 -18 -19 -65 -21
-82 -4 -21 21 -15 75 10 92 26 19 33 19 59 6z m267 -2 c7 -7 12 -33 12 -58 l0
-47 -47 1 c-45 1 -48 3 -51 29 -3 23 1 28 28 33 33 7 46 19 31 29 -6 3 -19 0
-30 -7 -25 -15 -39 -4 -21 17 15 18 61 20 78 3z m130 -2 c15 -9 22 -64 12 -92
-14 -37 -30 -20 -30 32 0 38 -3 45 -17 42 -13 -2 -19 -15 -21 -46 -2 -28 -8
-42 -18 -42 -10 0 -14 14 -14 53 0 30 2 56 4 58 6 6 72 2 84 -5z m-1150 -41
c2 -22 -4 -37 -23 -55 -33 -31 -32 -42 5 -38 41 4 38 -15 -5 -26 -37 -8 -65
-3 -65 12 0 5 14 26 30 47 17 21 30 46 30 56 0 26 -37 25 -45 -1 -8 -25 -25
-26 -25 -2 0 28 22 43 60 40 31 -3 35 -7 38 -33z m1430 23 c22 -22 15 -76 -13
-94 -52 -34 -115 29 -81 81 18 28 72 35 94 13z m190 -12 c17 -10 15 -81 -3
-96 -9 -7 -27 -10 -45 -6 -27 5 -30 3 -30 -19 0 -17 -6 -25 -16 -25 -14 0 -16
8 -10 53 3 28 6 64 6 79 0 25 2 27 43 24 23 -1 48 -6 55 -10z m139 -24 c29
-39 0 -92 -51 -92 -41 0 -56 15 -56 56 0 58 71 82 107 36z m345 -62 c-11 -77
-17 -89 -32 -74 -6 6 -6 33 0 74 14 86 18 96 32 82 8 -8 8 -31 0 -82z m-232
54 c0 -8 -9 -13 -22 -11 -18 2 -23 -4 -29 -36 -7 -42 -13 -52 -28 -42 -10 5
-7 63 4 101 4 15 75 5 75 -12z m290 -60 c-11 -70 -22 -94 -34 -75 -7 10 10
137 21 154 3 5 9 5 15 -1 5 -5 5 -35 -2 -78z m-2479 43 c4 -14 10 -49 14 -77
7 -49 6 -52 -13 -46 -11 4 -23 2 -27 -4 -19 -30 -75 13 -75 58 0 34 16 52 47
52 18 0 23 6 23 26 0 33 21 27 31 -9z m129 -7 c26 -26 16 -50 -20 -50 -16 0
-32 -5 -35 -10 -10 -16 26 -24 47 -11 25 15 35 7 18 -14 -16 -19 -74 -20 -89
-1 -21 25 -9 79 19 93 33 17 37 16 60 -7z m2218 8 c7 -7 12 -23 12 -36 0 -23
-3 -24 -40 -18 -41 6 -51 -2 -26 -23 11 -10 20 -10 36 -1 28 15 41 2 16 -16
-56 -40 -119 24 -81 82 17 26 62 33 83 12z m243 -28 c21 -12 26 -59 9 -91 -15
-26 -75 -26 -90 0 -33 63 20 123 81 91z m-2723 -28 c3 -9 -4 -12 -23 -10 -16
2 -30 -2 -32 -9 -3 -9 7 -13 30 -13 36 0 51 -17 41 -45 -11 -28 -83 -34 -92
-7 -2 8 6 11 27 10 41 -4 40 16 -1 22 -39 6 -50 36 -22 57 23 16 66 13 72 -5z
m2848 4 c14 -11 16 -18 8 -26 -8 -8 -14 -7 -24 5 -14 17 -30 20 -30 5 0 -6 11
-15 24 -22 66 -29 20 -88 -48 -62 -9 3 -16 15 -16 25 0 23 15 25 24 4 6 -16
36 -21 36 -6 0 5 -11 16 -25 25 -24 16 -33 45 -18 59 11 12 48 8 69 -7z
m-3093 -58 c31 -62 2 -112 -68 -120 -29 -3 -31 0 -51 62 -12 36 -19 70 -17 77
6 16 29 21 78 20 36 -2 42 -6 58 -39z m125 30 c14 -14 16 -48 3 -48 -5 0 -22
-5 -38 -11 -25 -9 -26 -11 -10 -21 14 -7 23 -5 38 8 21 19 35 14 26 -10 -3 -8
-20 -17 -37 -21 -40 -9 -72 19 -72 61 0 44 60 72 90 42z m-518 -18 c-68 -23
-333 -90 -337 -86 -3 3 15 10 38 16 24 6 82 23 129 37 47 13 95 28 108 31 12
4 37 8 55 9 30 1 30 1 7 -7z m2255 -150 c174 -11 419 -34 530 -50 258 -38 617
-109 633 -125 3 -3 2 -8 -1 -11 -6 -7 -36 -2 -182 31 -149 33 -489 85 -680
106 -140 14 -299 22 -530 26 -595 10 -1013 -33 -1624 -165 -17 -3 -22 -1 -19
9 8 24 466 111 758 144 357 41 801 55 1115 35z m1005 -261 c24 -7 24 -7 -5 -8
-16 0 -41 6 -55 14 l-25 15 30 -7 c17 -3 41 -10 55 -14z m-2743 -65 c-3 -3
-12 -4 -19 -1 -8 3 -5 6 6 6 11 1 17 -2 13 -5z m2700 0 c-3 -3 -12 -4 -19 -1
-8 3 -5 6 6 6 11 1 17 -2 13 -5z m-2740 -10 c-3 -3 -12 -4 -19 -1 -8 3 -5 6 6
6 11 1 17 -2 13 -5z m2796 -1 c-7 -2 -19 -2 -25 0 -7 3 -2 5 12 5 14 0 19 -2
13 -5z m-2883 -17 c0 -2 -9 -6 -20 -9 -11 -3 -18 -1 -14 4 5 9 34 13 34 5z
m2967 -2 c-3 -3 -12 -4 -19 -1 -8 3 -5 6 6 6 11 1 17 -2 13 -5z m58 -14 c13
-6 15 -9 5 -9 -8 0 -22 4 -30 9 -18 12 -2 12 25 0z m62 -16 c-3 -3 -12 -4 -19
-1 -8 3 -5 6 6 6 11 1 17 -2 13 -5z m-3260 -20 c-3 -3 -12 -4 -19 -1 -8 3 -5
6 6 6 11 1 17 -2 13 -5z m3358 -4 c25 -11 -1 -11 -35 0 -20 6 -21 8 -5 8 11 0
29 -3 40 -8z m-3440 -20 c-11 -5 -27 -9 -35 -9 -9 0 -8 4 5 9 11 5 27 9 35 9
9 0 8 -4 -5 -9z m3510 0 c13 -5 14 -9 5 -9 -8 0 -24 4 -35 9 -13 5 -14 9 -5 9
8 0 24 -4 35 -9z m75 -20 c20 -6 21 -8 5 -8 -11 0 -29 3 -40 8 -25 11 1 11 35
0z m77 -26 c-3 -3 -12 -4 -19 -1 -8 3 -5 6 6 6 11 1 17 -2 13 -5z"/>
<path d="M2920 1225 c-17 -21 -4 -67 18 -63 22 4 29 63 8 71 -8 3 -20 -1 -26
-8z"/>
<path d="M2017 1263 c-14 -13 -6 -33 13 -33 13 0 20 7 20 20 0 19 -20 27 -33
13z"/>
<path d="M2023 1203 c-7 -3 -13 -13 -13 -23 0 -19 17 -30 38 -23 6 3 12 13 12
23 0 19 -17 30 -37 23z"/>
<path d="M1887 1253 c-10 -9 -8 -76 2 -92 14 -22 41 -5 41 26 0 59 -20 89 -43
66z"/>
<path d="M1757 1243 c-12 -11 -7 -79 6 -98 19 -25 37 -10 37 31 0 52 -23 88
-43 67z"/>
<path d="M2650 1184 c0 -9 7 -14 17 -12 25 5 28 28 4 28 -12 0 -21 -6 -21 -16z"/>
<path d="M3057 1224 c-4 -4 -7 -20 -7 -36 0 -25 4 -29 23 -26 17 2 22 10 22
33 0 29 -22 45 -38 29z"/>
<path d="M3252 1208 c-17 -17 -15 -43 3 -58 21 -18 37 0 33 36 -3 31 -18 40
-36 22z"/>
<path d="M3374 1186 c-10 -26 1 -51 21 -51 15 0 21 8 23 33 3 27 0 32 -18 32
-11 0 -23 -6 -26 -14z"/>
<path d="M1304 1126 c-10 -27 1 -51 24 -54 21 -3 23 0 20 30 -3 35 -33 52 -44
24z"/>
<path d="M1440 1145 c0 -17 2 -18 24 -9 23 9 20 24 -4 24 -11 0 -20 -7 -20
-15z"/>
<path d="M3667 1163 c-13 -12 -7 -23 13 -23 11 0 20 7 20 15 0 15 -21 21 -33
8z"/>
<path d="M3904 1116 c-9 -24 0 -51 19 -54 18 -4 38 33 30 56 -7 17 -42 15 -49
-2z"/>
<path d="M890 1074 c0 -3 5 -25 11 -50 10 -40 14 -45 38 -42 28 3 38 30 27 74
-5 20 -13 24 -41 24 -19 0 -35 -3 -35 -6z"/>
<path d="M1067 1084 c-13 -13 -7 -24 14 -24 11 0 19 5 17 12 -5 14 -22 21 -31
12z"/>
</g>
</svg>
